<svg xmlns="http://www.w3.org/2000/svg" xmlns:xlink="http://www.w3.org/1999/xlink" width="27" height="30" viewBox="0 0 27 30"><defs><style>.a,.b{fill:none;}.a{clip-rule:evenodd;}.c{clip-path:url(#a);}.d{clip-path:url(#b);}.e{fill:#01964e;}</style><clipPath id="a"><path class="a" d="M4.306-254.235A1.129,1.129,0,0,0,3.181-253c1.1,12.383,9.971,22.236,21.116,23.462a1.122,1.122,0,0,0,1.115-1.25v-4.91A1.373,1.373,0,0,0,24.563-237l-4.3-1.592a1.157,1.157,0,0,0-1.27.334l-.688.764a2.278,2.278,0,0,1-3.125.334,18.3,18.3,0,0,1-5.175-5.733,2.953,2.953,0,0,1,.322-3.432l.7-.781a1.488,1.488,0,0,0,.3-1.411L9.9-253.292a1.259,1.259,0,0,0-1.177-.944ZM.018-251.761A3.756,3.756,0,0,1,3.586-256H7.972a3.751,3.751,0,0,1,3.506,2.808l1.422,4.738a4.436,4.436,0,0,1-.893,4.2l-.686.763a15.528,15.528,0,0,0,4.431,4.9l.674-.749a3.44,3.44,0,0,1,3.783-.993l4.264,1.58a4.093,4.093,0,0,1,2.527,3.9v4.873c0,2.228-1.654,4.2-3.815,3.965C10.954-227.365,1.229-238.171.018-251.761Zm17.453-2.916A1.263,1.263,0,0,1,18.662-256c4.605,0,8.338,4.148,8.338,9.265a1.263,1.263,0,0,1-1.191,1.324,1.263,1.263,0,0,1-1.191-1.324c0-3.654-2.667-6.618-5.956-6.618A1.263,1.263,0,0,1,17.471-254.676Zm0,5.294a1.263,1.263,0,0,1,1.191-1.324,3.788,3.788,0,0,1,3.574,3.971,1.263,1.263,0,0,1-1.191,1.324,1.263,1.263,0,0,1-1.191-1.324,1.263,1.263,0,0,0-1.191-1.324,1.263,1.263,0,0,1-1.191-1.324Z"/></clipPath><clipPath id="b"><path class="b" d="M-96,765H928V-1688H-96Z"/></clipPath></defs><g class="c" transform="translate(0 256)"><g class="d"><path class="e" d="M-5-261H32v40H-5Z"/></g></g></svg>