<svg xmlns="http://www.w3.org/2000/svg" xmlns:xlink="http://www.w3.org/1999/xlink" width="27" height="24" viewBox="0 0 27 24"><defs><style>.a,.b{fill:none;}.a{clip-rule:evenodd;}.c{clip-path:url(#a);}.d{clip-path:url(#b);}.e{fill:#01964e;}</style><clipPath id="a"><path class="a" d="M.35-184.5A3.436,3.436,0,0,1,3.375-187h20.25a3.436,3.436,0,0,1,3.025,2.5,5.755,5.755,0,0,1,.35,2v15c0,2.486-1.511,4.5-3.375,4.5H3.375C1.511-163,0-165.014,0-167.5v-15A5.755,5.755,0,0,1,.35-184.5Zm3.124.5,9.487,6.9a.883.883,0,0,0,1.078,0l9.487-6.9Zm21.276,2.527-9.633,7.005a2.65,2.65,0,0,1-3.233,0L2.25-181.473V-167.5c0,.828.5,1.5,1.125,1.5h20.25c.621,0,1.125-.672,1.125-1.5v-13.973Z"/></clipPath><clipPath id="b"><path class="b" d="M-96,765H1009.92V-1688H-96Z" transform="translate(96 1688)"/></clipPath></defs><g class="c" transform="translate(0 187)"><g class="d" transform="translate(-103.68 -1688)"><path class="e" d="M-5-192H32.8v34H-5Z" transform="translate(103.28 1688)"/></g></g></svg>