<svg xmlns="http://www.w3.org/2000/svg" xmlns:xlink="http://www.w3.org/1999/xlink" width="27" height="29" viewBox="0 0 27 29"><defs><style>.a{fill:none;}.b{clip-path:url(#a);}.c{clip-path:url(#b);}.d{fill:#01964e;}</style><clipPath id="a"><path class="a" d="M13.5-97C6.044-97,0-103.492,0-111.5S6.044-126,13.5-126,27-119.508,27-111.5,20.956-97,13.5-97Zm0-2.9c5.965,0,10.8-5.193,10.8-11.6s-4.835-11.6-10.8-11.6S2.7-117.907,2.7-111.5,7.535-99.9,13.5-99.9Zm-1.35-11.006V-120.2h2.7v8.105l5.333,5.728-1.9,2.044Z"/></clipPath><clipPath id="b"><path class="a" d="M-96,765H928V-1688H-96Z"/></clipPath></defs><g class="b" transform="translate(0 126)"><g class="c"><path class="d" d="M-5-131H32v39H-5Z"/></g></g></svg>