<svg xmlns="http://www.w3.org/2000/svg" xmlns:xlink="http://www.w3.org/1999/xlink" width="27" height="35" viewBox="0 0 27 35"><defs><style>.a,.b{fill:none;}.a{clip-rule:evenodd;}.c{clip-path:url(#a);}.d{clip-path:url(#b);}.e{fill:#01964e;}.f{clip-path:url(#c);}.g{clip-path:url(#d);}</style><clipPath id="a"><path class="a" d="M13.339-50.516C6.049-50.32.183-44.032,0-36.219a16.709,16.709,0,0,0,1.742,6.6l.1.2C9.908-15.568,12.317-15.568,13.339-15.568c1.6,0,3.327-1.207,7.411-7.363,2.142-3.177,3.98-6.354,4.054-6.5l.1-.191a16.7,16.7,0,0,0,1.771-6.6c-.183-7.813-6.049-14.1-13.339-14.3Zm9.634,19.857s-7.411,12.708-9.634,12.708S3.705-30.659,3.705-30.659a14.292,14.292,0,0,1-1.482-5.56c0-6.58,4.977-11.914,11.116-11.914S24.455-42.8,24.455-36.219a14.286,14.286,0,0,1-1.5,5.56Z" transform="translate(0 50.516)"/></clipPath><clipPath id="b"><path class="b" d="M-96,480.921H928V-1688H-96Z" transform="translate(96 1688)"/></clipPath><clipPath id="c"><path class="a" d="M13.339-40.635c-3.274,0-5.929,3.1-5.929,6.917S10.065-26.8,13.339-26.8s5.929-3.1,5.929-6.917S16.614-40.635,13.339-40.635Zm0,11.24c-2.046,0-3.705-1.936-3.705-4.323s1.659-4.323,3.705-4.323,3.705,1.936,3.705,4.323S15.386-29.395,13.339-29.395Z" transform="translate(-7.411 40.635)"/></clipPath><clipPath id="d"><path class="b" d="M-96,765H928V-1688H-96Z" transform="translate(96 1688)"/></clipPath></defs><g class="c"><g class="d" transform="translate(-96 -1447.849)"><path class="e" d="M-5-55.516H31.679v43.79H-5Z" transform="translate(96 1498.944)"/></g></g><g class="f" transform="translate(7.411 8.121)"><g class="g" transform="translate(-103.411 -1647.365)"><path class="e" d="M2.411-45.635H24.268V-21.8H2.411Z" transform="translate(96 1688)"/></g></g></svg>